<?xml version="1.0" encoding="UTF-8" standalone="no"?>
<!-- Generator: Adobe Illustrator 25.0.0, SVG Export Plug-In . SVG Version: 6.00 Build 0)  -->

<svg
   version="1.1"
   id="Layer_1"
   x="0px"
   y="0px"
   viewBox="0 0 1080 1080"
   style="enable-background:new 0 0 1080 1080;"
   xml:space="preserve"
   xmlns="http://www.w3.org/2000/svg"
   xmlns:svg="http://www.w3.org/2000/svg"><defs
   id="defs95">
	
	
</defs>
<style
   type="text/css"
   id="style2">
	.st0{fill:#01262F;}
	.st1{fill:url(#SVGID_1_);}
	.st2{fill:url(#SVGID_2_);}
	.st3{fill:url(#SVGID_3_);}
	.st4{fill:url(#SVGID_4_);}
	.st5{fill:url(#SVGID_5_);}
	.st6{fill:url(#SVGID_6_);}
	.st7{fill:url(#SVGID_7_);}
	.st8{fill:url(#SVGID_8_);}
</style>
<g
   id="g88"
   style="fill:#d7dae0;fill-opacity:1"
   transform="matrix(3.4674135,0,0,3.4674135,-1330.322,-1013.4566)">
		<g
   id="g63"
   style="fill:#d7dae0;fill-opacity:1">
			<g
   id="g61"
   style="fill:#d7dae0;fill-opacity:1">
				<g
   id="g50"
   style="fill:#d7dae0;fill-opacity:1">
					<g
   id="g48"
   style="fill:#d7dae0;fill-opacity:1">
						<g
   id="g46"
   style="fill:#d7dae0;fill-opacity:1">
							<g
   id="g44"
   style="fill:#d7dae0;fill-opacity:1">
								<linearGradient
   id="SVGID_1_"
   gradientUnits="userSpaceOnUse"
   x1="432.38449"
   y1="619.03607"
   x2="746.46539"
   y2="372.01569">
									<stop
   offset="0"
   style="stop-color:#9DF728"
   id="stop16" />
									<stop
   offset="1"
   style="stop-color:#36A201"
   id="stop18" />
								</linearGradient>
								<path
   class="st1"
   d="m 555.9,536.02 h -29.37 c -0.3,0 -0.55,-0.25 -0.55,-0.55 v -4.06 c 0,-0.3 0.25,-0.55 0.55,-0.55 h 29.37 c 0.3,0 0.55,0.25 0.55,0.55 v 4.06 c 0,0.3 -0.25,0.55 -0.55,0.55 z"
   id="path21"
   style="fill:#d7dae0;fill-opacity:1" />
								<linearGradient
   id="SVGID_2_"
   gradientUnits="userSpaceOnUse"
   x1="436.01569"
   y1="623.37592"
   x2="750.09662"
   y2="376.35541">
									<stop
   offset="0"
   style="stop-color:#9DF728"
   id="stop23" />
									<stop
   offset="1"
   style="stop-color:#36A201"
   id="stop25" />
								</linearGradient>
								<path
   class="st2"
   d="m 555.9,543.21 h -29.37 c -0.3,0 -0.55,-0.25 -0.55,-0.55 v -4.06 c 0,-0.3 0.25,-0.55 0.55,-0.55 h 29.37 c 0.3,0 0.55,0.25 0.55,0.55 v 4.06 c 0,0.31 -0.25,0.55 -0.55,0.55 z"
   id="path28"
   style="fill:#d7dae0;fill-opacity:1" />
								<linearGradient
   id="SVGID_3_"
   gradientUnits="userSpaceOnUse"
   x1="387.4827"
   y1="553.63171"
   x2="689.90637"
   y2="315.77951">
									<stop
   offset="0"
   style="stop-color:#9DF728"
   id="stop30" />
									<stop
   offset="1"
   style="stop-color:#36A201"
   id="stop32" />
								</linearGradient>
								<path
   class="st3"
   d="m 558.14,516.21 6.83,6.56 -10.23,5.93 h -28.46 l -10.23,-5.93 7.1,-6.84 c -0.28,-3 -30.33,-47.33 -47.65,-56.68 11.72,-21.77 23.29,-43.26 35.38,-65.71 0.11,0.4 0.23,0.76 0.32,1.1 1.19,-3.86 2.37,-7.74 3.55,-11.6 0.44,-0.06 0.87,-0.12 1.31,-0.18 2.19,3.71 4.39,7.42 6.58,11.12 l 0.65,-0.19 c -1.45,-4.49 -3.02,-8.95 -4.29,-13.49 -0.42,-1.51 -0.58,-3.45 -0.01,-4.83 6.78,-16.33 13.71,-32.59 20.61,-48.88 0.22,-0.51 0.51,-0.99 1.14,-2.19 4.32,10.42 8.17,20.19 12.41,29.78 6.01,13.58 12.11,27.12 18.64,40.45 2.07,4.22 2.47,7.48 -0.57,11.13 -1.05,1.26 -1.62,2.92 -1.97,4.74 2.04,-2.23 4.07,-4.46 6.15,-6.73 5.23,6.66 4.98,6.76 1.27,13.37 -3.5,6.26 -6.64,12.7 -9.5,19.19 -4.44,-11.89 -9.86,-23.42 -14.24,-35.34 -2.02,-5.46 -2.51,-11.48 -3.71,-17.42 -0.49,0.29 -1.26,0.59 -1.82,1.1 -12.44,11.37 -23.34,23.94 -30.66,39.32 -6.52,13.7 -10.13,27.89 -7.07,43.09 2.59,12.86 9.47,22.43 22.25,26.95 1.68,0.6 3.54,0.7 5.66,1.1 0.86,-9.95 1.67,-19.24 2.49,-28.63 -4.41,-2.3 -8.46,-4.41 -12.66,-6.6 4.75,-21.83 9.4,-43.25 14.06,-64.67 0.63,0.09 0.39,0.06 1.02,0.13 -0.79,17.72 -1.58,35.42 -2.37,53.22 5.66,3.18 10.95,6.15 16.6,9.32 -4.27,12.34 -8.43,24.36 -12.94,37.39 7.23,-1.38 12.21,-4.91 17.07,-8.53 9.01,-6.7 13.31,-15.98 12.13,-27 -0.78,-7.35 -2.63,-14.74 -5.16,-21.7 -0.02,-0.06 -0.05,-0.12 -0.07,-0.18 5.29,-5.92 10.63,-11.9 16.34,-18.28 7.75,13.88 14.8,26.51 22.06,39.5 -17.08,9.18 -45.53,51.58 -48.01,57.11 z"
   id="path35"
   style="fill:#d7dae0;fill-opacity:1" />
								<linearGradient
   id="SVGID_4_"
   gradientUnits="userSpaceOnUse"
   x1="399.8244"
   y1="569.32379"
   x2="702.24799"
   y2="331.47171">
									<stop
   offset="0"
   style="stop-color:#9DF728"
   id="stop37" />
									<stop
   offset="1"
   style="stop-color:#36A201"
   id="stop39" />
								</linearGradient>
								<path
   class="st4"
   d="m 567.73,437.87 c -0.82,0.91 -1.62,1.82 -2.44,2.73 0.61,-1.43 1.22,-2.86 1.86,-4.29 0.2,0.52 0.39,1.04 0.58,1.56 z"
   id="path42"
   style="fill:#d7dae0;fill-opacity:1" />
							</g>
						</g>
					</g>
				</g>
				<g
   id="g59"
   style="fill:#d7dae0;fill-opacity:1">
					<linearGradient
   id="SVGID_5_"
   gradientUnits="userSpaceOnUse"
   x1="455.88251"
   y1="640.6004"
   x2="758.30621"
   y2="402.74829">
						<stop
   offset="0"
   style="stop-color:#9DF728"
   id="stop52" />
						<stop
   offset="1"
   style="stop-color:#36A201"
   id="stop54" />
					</linearGradient>
					<path
   class="st5"
   d="m 554.16,545.24 v 55.65 c -4.4,0.39 -8.86,0.58 -13.36,0.58 -3.85,0 -7.67,-0.13 -11.45,-0.42 v -55.81 z"
   id="path57"
   style="fill:#d7dae0;fill-opacity:1" />
				</g>
			</g>
		</g>
		<g
   id="g86"
   style="fill:#d7dae0;fill-opacity:1">
			<linearGradient
   id="SVGID_6_"
   gradientUnits="userSpaceOnUse"
   x1="406.50299"
   y1="577.81549"
   x2="708.92657"
   y2="339.96329">
				<stop
   offset="0"
   style="stop-color:#9DF728"
   id="stop65" />
				<stop
   offset="1"
   style="stop-color:#36A201"
   id="stop67" />
			</linearGradient>
			<path
   class="st6"
   d="m 683.11,459.67 c -4.81,0 -8.85,3.53 -9.57,8.29 -9.09,60.19 -58.27,107.39 -119.38,113.46 -4.4,0.42 -8.86,0.65 -13.36,0.65 -3.85,0 -7.67,-0.16 -11.45,-0.49 C 460.66,575.76 406.57,518 406.57,447.83 c 0,-7.22 0.58,-14.3 1.69,-21.21 0.94,-5.84 -3.68,-11.09 -9.59,-11.09 v 0 c -4.76,0 -8.85,3.45 -9.6,8.16 -1.25,7.86 -1.91,15.92 -1.91,24.14 0,81.01 62.67,147.37 142.2,153.23 3.79,0.29 7.6,0.42 11.45,0.42 4.5,0 8.96,-0.19 13.36,-0.58 71.03,-6.11 128.22,-60.54 138.59,-130.26 0.86,-5.8 -3.76,-10.97 -9.62,-10.97 z"
   id="path70"
   style="fill:#d7dae0;fill-opacity:1" />
			<linearGradient
   id="SVGID_7_"
   gradientUnits="userSpaceOnUse"
   x1="349.98611"
   y1="505.95541"
   x2="652.40973"
   y2="268.10339">
				<stop
   offset="0"
   style="stop-color:#9DF728"
   id="stop72" />
				<stop
   offset="1"
   style="stop-color:#36A201"
   id="stop74" />
			</linearGradient>
			<path
   class="st7"
   d="m 418.32,382.02 c 3.31,0 6.44,-1.66 8.18,-4.48 23.66,-38.35 66.03,-63.99 114.3,-63.99 42.49,0 80.41,19.86 105.02,50.77 1.88,2.36 4.68,3.79 7.69,3.79 v 0 c 8.13,0 12.68,-9.41 7.62,-15.78 -28.14,-35.45 -71.57,-58.2 -120.34,-58.2 -55.25,0 -103.66,29.17 -130.74,72.94 -4.03,6.52 0.55,14.93 8.21,14.93 h 0.06 z"
   id="path77"
   style="fill:#d7dae0;fill-opacity:1" />
			<linearGradient
   id="SVGID_8_"
   gradientUnits="userSpaceOnUse"
   x1="431.21078"
   y1="609.23102"
   x2="733.63452"
   y2="371.37881">
				<stop
   offset="0"
   style="stop-color:#9DF728"
   id="stop79" />
				<stop
   offset="1"
   style="stop-color:#36A201"
   id="stop81" />
			</linearGradient>
			<path
   class="st8"
   d="m 681.95,429.43 v 0 c 6.19,0 10.73,-5.69 9.51,-11.75 -0.92,-4.6 -2.05,-9.12 -3.37,-13.55 -1.23,-4.14 -5.02,-6.98 -9.34,-6.98 v 0 c -6.54,0 -11.13,6.31 -9.26,12.58 1.16,3.88 2.14,7.83 2.95,11.85 0.91,4.54 4.87,7.85 9.51,7.85 z"
   id="path84"
   style="fill:#d7dae0;fill-opacity:1" />
		</g>
	</g>
</svg>
