<?xml version="1.0" encoding="UTF-8" standalone="no"?>
<svg
   width="24"
   height="24"
   viewBox="0 0 24 24"
   fill="none"
   version="1.1"
   id="svg4"
   sodipodi:docname="analyze_settings.svg"
   xml:space="preserve"
   inkscape:version="1.2.2 (b0a8486541, 2022-12-01)"
   xmlns:inkscape="http://www.inkscape.org/namespaces/inkscape"
   xmlns:sodipodi="http://sodipodi.sourceforge.net/DTD/sodipodi-0.dtd"
   xmlns="http://www.w3.org/2000/svg"
   xmlns:svg="http://www.w3.org/2000/svg"><defs
     id="defs8" /><sodipodi:namedview
     id="namedview6"
     pagecolor="#ffffff"
     bordercolor="#000000"
     borderopacity="0.25"
     inkscape:showpageshadow="2"
     inkscape:pageopacity="0.0"
     inkscape:pagecheckerboard="0"
     inkscape:deskcolor="#d1d1d1"
     showgrid="false"
     inkscape:zoom="10.373227"
     inkscape:cx="-4.0970858"
     inkscape:cy="19.184002"
     inkscape:window-width="1920"
     inkscape:window-height="1011"
     inkscape:window-x="1920"
     inkscape:window-y="32"
     inkscape:window-maximized="1"
     inkscape:current-layer="svg4" /><path
     fill-rule="evenodd"
     clip-rule="evenodd"
     d="M 19.85,8.75 24,9.57996 V 14.42 l -4.15,0.83 2.35,3.52 -3.43,3.43 C 15.013357,19.412768 15.285064,19.674681 14.42,24 H 9.57996 C 8.8915493,19.37316 8.8984676,19.750882 5.22998,22.2 L 1.80005,18.77 4.15002,15.25 0,14.42 V 9.57996 L 4.15002,8.75 1.80005,5.22998 5.22998,1.80005 8.75,4.15002 9.57996,0 H 14.42 l 0.83,4.15002 3.52,-2.34997 3.43,3.42993 z m 2.43,4.26 v -2 C 20.176076,10.582008 18.568328,10.894113 17.74,8.90002 l 2.29,-3.43005 -1.43,-1.42993 -3.43,2.28992 -1.3,-0.53992 -0.8099,-4 h -2 l -0.8101,4 L 8.94995,6.32996 5.52002,4.04004 4.08997,5.46997 6.38,8.90002 C 5.8561017,10.953497 3.6726057,10.638891 1.83997,11.01 v 2 c 5.1642665,0.747953 4.938714,1.512852 2.25,5.54 l 1.43005,1.43 c 4.1671334,-3.125779 4.575988,-2.510363 5.54008,2.25 h 2 c 0.74798,-5.164256 1.512743,-4.938802 5.5399,-2.25 l 1.43,-1.43 c -3.125587,-4.167197 -2.510458,-4.576126 2.25,-5.54 z"
     fill="#c5c5c5"
     id="path2"
     sodipodi:nodetypes="cccccccccccccccccccccccccccccccccccccccccccccc" /><g
     style="fill:#c5c5c5;fill-opacity:1;stroke:#c5c5c5;stroke-width:23.4463;stroke-dasharray:none;stroke-opacity:1"
     id="g251"
     transform="matrix(0.02226307,0,0,0.02226307,7.4591757,7.7904411)"><g
       id="g241"
       style="fill:#c5c5c5;fill-opacity:1;stroke:#c5c5c5;stroke-width:23.4463;stroke-dasharray:none;stroke-opacity:1">
	<g
   id="g239"
   style="fill:#c5c5c5;fill-opacity:1;stroke:#c5c5c5;stroke-width:23.4463;stroke-dasharray:none;stroke-opacity:1">
		<path
   d="M 325.662,3.768 C 324.325,1.437 321.844,0 319.157,0 H 164.555 c -3.218,0 -6.078,2.053 -7.107,5.102 L 91.19,201.421 c -0.772,2.289 -0.394,4.81 1.014,6.772 1.409,1.962 3.677,3.126 6.093,3.126 h 62.812 L 88.817,404.876 c -1.278,3.422 0.096,7.268 3.254,9.106 1.18,0.686 2.48,1.018 3.769,1.018 2.16,0 4.287,-0.932 5.756,-2.687 l 201.228,-240.49 c 1.869,-2.234 2.276,-5.348 1.043,-7.987 -1.232,-2.639 -3.882,-4.326 -6.795,-4.326 H 238.978 L 325.632,11.286 c 1.356,-2.32 1.368,-5.187 0.03,-7.518 z M 219.429,163.223 c -1.356,2.32 -1.368,5.187 -0.03,7.518 1.337,2.331 3.818,3.768 6.505,3.768 h 55.111 L 118.189,369.107 178.943,206.443 c 0.86,-2.302 0.537,-4.88 -0.865,-6.9 -1.401,-2.019 -3.703,-3.224 -6.161,-3.224 H 108.744 L 169.939,15 h 136.145 z"
   id="path237"
   style="fill:#c5c5c5;fill-opacity:1;stroke:#c5c5c5;stroke-width:23.4463;stroke-dasharray:none;stroke-opacity:1" />
	</g>
</g></g></svg>
